<?xml version="1.0" encoding="iso-8859-1"?>
<!-- Generator: Adobe Illustrator 18.1.1, SVG Export Plug-In . SVG Version: 6.00 Build 0)  -->
<svg version="1.1" id="Capa_1" xmlns="http://www.w3.org/2000/svg" xmlns:xlink="http://www.w3.org/1999/xlink" x="0px" y="0px"
	 viewBox="0 0 581.176 581.176" style="enable-background:new 0 0 581.176 581.176;" xml:space="preserve">
<g>
	<g>
		<polygon points="315.579,54.485 265.598,54.485 265.598,114.25 205.833,114.25 205.833,164.231 265.598,164.231 265.598,223.995 
			315.579,223.995 315.579,164.231 375.343,164.231 375.343,114.25 315.579,114.25 		"/>
		<path d="M508.529,260.319v-96.863h-84.755V6.054H157.402v157.402H72.647v96.863H0v314.804h72.647h435.882h72.647V260.319H508.529z
			 M72.647,550.907H24.216v-24.216h48.431V550.907z M72.647,502.475H24.216V478.26h48.431V502.475z M72.647,454.044H24.216v-24.216
			h48.431V454.044z M72.647,405.613H24.216v-24.216h48.431V405.613z M72.647,357.181H24.216v-24.216h48.431V357.181z M72.647,308.75
			H24.216v-24.216h48.431V308.75z M181.618,30.27h217.941v217.941H181.618V30.27z M254.265,526.691H121.078V478.26h133.186V526.691z
			 M254.265,429.828H121.078v-48.431h133.186V429.828z M254.265,332.966H121.078v-48.431h133.186V332.966z M460.098,526.691H326.912
			V478.26h133.186V526.691z M460.098,429.828H326.912v-48.431h133.186V429.828z M460.098,332.966H326.912v-48.431h133.186V332.966z
			 M556.961,550.907h-48.431v-24.216h48.431V550.907z M556.961,502.475h-48.431V478.26h48.431V502.475z M556.961,454.044h-48.431
			v-24.216h48.431V454.044z M556.961,405.613h-48.431v-24.216h48.431V405.613z M556.961,357.181h-48.431v-24.216h48.431V357.181z
			 M556.961,308.75h-48.431v-24.216h48.431V308.75z"/>
	</g>
</g>
<g>
</g>
<g>
</g>
<g>
</g>
<g>
</g>
<g>
</g>
<g>
</g>
<g>
</g>
<g>
</g>
<g>
</g>
<g>
</g>
<g>
</g>
<g>
</g>
<g>
</g>
<g>
</g>
<g>
</g>
</svg>
